<svg xmlns="http://www.w3.org/2000/svg" xmlns:xlink="http://www.w3.org/1999/xlink" width="472" height="121" viewBox="0 0 472 121">
  <defs>
    <clipPath id="clip-Chant_e">
      <rect width="472" height="121"/>
    </clipPath>
  </defs>
  <g id="Chant_e" data-name="Chant&apos;e" clip-path="url(#clip-Chant_e)">
    <rect width="472" height="121" fill="rgba(255,255,255,0)"/>
    <path id="Path_134" data-name="Path 134" d="M16.453,12.641l-.141,16.617.141,14.109a15.605,15.605,0,0,0,2.013.164,14.558,14.558,0,0,0,4.7-.82,14.908,14.908,0,0,0,4.26-2.227A15.965,15.965,0,0,0,29.9,38.047a17.427,17.427,0,0,0,2.048-2.977q.445-.844.96-.844.772,0,.772.656a5.383,5.383,0,0,1-1.16,2.379,20,20,0,0,1-2.543,3.012,16.317,16.317,0,0,1-7.055,4.008,17.436,17.436,0,0,1-4.687.68,16.71,16.71,0,0,1-6.586-1.406A16.284,16.284,0,0,1,3.586,36.5,17,17,0,0,1,10.9,12.688a16.652,16.652,0,0,1,7.336-1.641,16.575,16.575,0,0,1,11.672,4.57q2.344,2.18,2.344,3.141a.623.623,0,0,1-.234.469.753.753,0,0,1-.515.211q-.468,0-1.123-.914a14.129,14.129,0,0,0-5.313-4.418,15.553,15.553,0,0,0-6.974-1.629A7.871,7.871,0,0,0,16.453,12.641Zm32.133,9.07a32.834,32.834,0,0,1,3.68-2.227,15.809,15.809,0,0,1,6.961-1.711,10.853,10.853,0,0,1,4.477.891A6.437,6.437,0,0,1,66.656,21.1Q67.8,22.953,67.8,27.9l-.047,3.492-.047,4.617L67.9,44H55.852l.094-14.484L55.8,22.109q-.234-1.219-1.729-1.219a5.708,5.708,0,0,0-2.465.668,16.033,16.033,0,0,0-3.025,2.027l-.047,5.883.08,10.2L48.68,44H36.633l.047-9.891V22.836l-.07-9.75.023-1.078H48.586v.656l.023,4.008-.023,2.484Zm41.063,6.68V25.531q-.023-2.977-.094-3.656a2.7,2.7,0,0,0-.422-1.219q-.845-1.312-3.944-1.312a9.267,9.267,0,0,0-7.395,3q-1.056,1.219-1.784,1.219a1.326,1.326,0,0,1-.939-.375,1.158,1.158,0,0,1-.4-.867q0-1.477,3.492-3.047a21.079,21.079,0,0,1,8.6-1.5q8.672,0,12.234,2.625a5.342,5.342,0,0,1,2.016,2.578,18.4,18.4,0,0,1,.469,5.039v9.3a18.873,18.873,0,0,0,.152,3.879A9.04,9.04,0,0,0,102.75,44H89.625V41.539a18.559,18.559,0,0,1-4.277,2.227,12.494,12.494,0,0,1-4.184.75,10.079,10.079,0,0,1-6.211-2.039,8.306,8.306,0,0,1-3.539-6.937,7.463,7.463,0,0,1,2.863-6.094A12.571,12.571,0,0,1,82.538,26.7a15.713,15.713,0,0,1,3.567.363A17.651,17.651,0,0,1,89.648,28.391Zm0,1.688a11.358,11.358,0,0,0-4.57-1.477A1.712,1.712,0,0,0,83.3,29.68a13.481,13.481,0,0,0-.234,3.4v5.6a15.634,15.634,0,0,0,.117,2.25q.234,1.078,1.594,1.078a5.57,5.57,0,0,0,2.4-.645,9.516,9.516,0,0,0,2.426-1.7ZM118.8,18.406v3.258a23.418,23.418,0,0,1,5.367-2.918,14.659,14.659,0,0,1,5.109-.973,9.952,9.952,0,0,1,5.625,1.523,5.659,5.659,0,0,1,2.332,2.848,18.319,18.319,0,0,1,.6,5.543l-.047,10.852.07,5.461H125.953l.08-6.516.06-4.781-.023-7.219q-.023-2.508-.059-2.988a2.264,2.264,0,0,0-.223-.855,1.629,1.629,0,0,0-1.617-.75,5.676,5.676,0,0,0-2.484.656,14.372,14.372,0,0,0-2.883,1.969l-.023.961-.047,6.586-.047,5.039.07,6.891L118.781,44H106.8l.07-9.187.07-6.07-.07-5.25-.07-5.086Zm37.1-8.25-.258,7.57-.023.727q2.039,0,3.7-.164.281-.023.492-.023,1.031,0,1.031.95,0,.878-1.078.878-.328,0-.82-.047-1.852-.141-2.648-.141h-.68l-.023,4.541.08,9.1.06,4.871A7.549,7.549,0,0,0,156,40.813a.916.916,0,0,0,.9.68,2.687,2.687,0,0,0,1.814-.984,7.058,7.058,0,0,0,1.484-2.414q.492-1.359,1.172-1.359.8,0,.8.891a4.577,4.577,0,0,1-.8,2.215,9.665,9.665,0,0,1-1.922,2.309,10.51,10.51,0,0,1-7.172,2.414,8.229,8.229,0,0,1-6.422-2.506,6.909,6.909,0,0,1-1.617-2.821,16.424,16.424,0,0,1-.445-4.32V33.159l.023-4.941V19.836q-.328-.023-.469-.023-.234,0-.937.047-.586.047-.984.047-1.148,0-1.148-.88,0-.855,1.1-.855.516,0,.727.023l1.711.117V15.664A74.375,74.375,0,0,0,155.906,10.156Zm8.18,14.719-.961-12.867h6.234L168.4,24.875Zm19.43,7.078v7.266a8.243,8.243,0,0,0,.258,2.672q.492,1.078,2.32,1.078a10.912,10.912,0,0,0,5.379-1.488,14.56,14.56,0,0,0,4.605-4.113,7.216,7.216,0,0,1,.914-1.1.933.933,0,0,1,.609-.234.836.836,0,0,1,.656.293,1.077,1.077,0,0,1,.258.738,4.62,4.62,0,0,1-1.57,2.648,15.838,15.838,0,0,1-5.121,3.469,14.846,14.846,0,0,1-5.965,1.336,13.177,13.177,0,0,1-12.234-8.2,13.073,13.073,0,0,1-1.055-5.062,13.588,13.588,0,0,1,.938-4.887,13.058,13.058,0,0,1,2.578-4.23,13.253,13.253,0,0,1,4.5-3.234,13.308,13.308,0,0,1,13.2,1.43q5.484,3.984,5.438,11.555h-5.461l-7.031.023Zm6-1.547V23.577q-.047-2.2-.094-2.631a1.616,1.616,0,0,0-.328-.807,3.138,3.138,0,0,0-2.672-.912q-2.062,0-2.578,1.052a9.539,9.539,0,0,0-.328,3.3v6.829l2.859.094Zm39.117-17.766-.141,16.617.141,14.109a15.605,15.605,0,0,0,2.013.164,14.558,14.558,0,0,0,4.7-.82,14.908,14.908,0,0,0,4.26-2.227,15.965,15.965,0,0,0,2.469-2.437,17.427,17.427,0,0,0,2.048-2.977q.445-.844.96-.844.772,0,.772.656a5.383,5.383,0,0,1-1.16,2.379,20,20,0,0,1-2.543,3.012,16.317,16.317,0,0,1-7.055,4.008,17.436,17.436,0,0,1-4.687.68,16.71,16.71,0,0,1-6.586-1.406,16.284,16.284,0,0,1-8.062-7.055,17,17,0,0,1,7.313-23.812,17.2,17.2,0,0,1,19.008,2.93q2.344,2.18,2.344,3.141a.623.623,0,0,1-.234.469.753.753,0,0,1-.515.211q-.468,0-1.123-.914a14.129,14.129,0,0,0-5.313-4.418,15.553,15.553,0,0,0-6.974-1.629A7.871,7.871,0,0,0,228.633,12.641Zm32.133,9.07a32.834,32.834,0,0,1,3.68-2.227,15.809,15.809,0,0,1,6.961-1.711,10.853,10.853,0,0,1,4.477.891,6.437,6.437,0,0,1,2.953,2.438q1.148,1.852,1.148,6.8l-.047,3.492-.047,4.617L280.078,44H268.031l.094-14.484-.141-7.406q-.234-1.219-1.729-1.219a5.708,5.708,0,0,0-2.465.668,16.033,16.033,0,0,0-3.025,2.027l-.047,5.883.08,10.2.06,4.336H248.813l.047-9.891V22.836l-.07-9.75.023-1.078h11.953v.656l.023,4.008-.023,2.484Zm41.063,6.68V25.531q-.023-2.977-.094-3.656a2.7,2.7,0,0,0-.422-1.219q-.845-1.312-3.944-1.312a9.267,9.267,0,0,0-7.395,3q-1.056,1.219-1.784,1.219a1.326,1.326,0,0,1-.939-.375,1.158,1.158,0,0,1-.4-.867q0-1.477,3.492-3.047a21.079,21.079,0,0,1,8.6-1.5q8.672,0,12.234,2.625a5.342,5.342,0,0,1,2.016,2.578,18.4,18.4,0,0,1,.469,5.039v9.3a18.873,18.873,0,0,0,.152,3.879A9.04,9.04,0,0,0,314.93,44H301.8V41.539a18.559,18.559,0,0,1-4.277,2.227,12.494,12.494,0,0,1-4.184.75,10.079,10.079,0,0,1-6.211-2.039,8.306,8.306,0,0,1-3.539-6.937,7.463,7.463,0,0,1,2.863-6.094,12.571,12.571,0,0,1,8.261-2.742,15.713,15.713,0,0,1,3.567.363A17.651,17.651,0,0,1,301.828,28.391Zm0,1.688a11.358,11.358,0,0,0-4.57-1.477,1.712,1.712,0,0,0-1.781,1.078,13.481,13.481,0,0,0-.234,3.4v5.6a15.634,15.634,0,0,0,.117,2.25q.234,1.078,1.594,1.078a5.57,5.57,0,0,0,2.4-.645,9.516,9.516,0,0,0,2.426-1.7Zm29.156-11.672v3.258a23.418,23.418,0,0,1,5.367-2.918,14.659,14.659,0,0,1,5.109-.973,9.952,9.952,0,0,1,5.625,1.523,5.659,5.659,0,0,1,2.332,2.848,18.319,18.319,0,0,1,.6,5.543l-.047,10.852.07,5.461H338.133l.08-6.516.06-4.781-.023-7.219q-.023-2.508-.059-2.988a2.264,2.264,0,0,0-.223-.855,1.629,1.629,0,0,0-1.617-.75,5.676,5.676,0,0,0-2.484.656,14.372,14.372,0,0,0-2.883,1.969l-.023.961-.047,6.586-.047,5.039.07,6.891L330.961,44H318.984l.07-9.187.07-6.07-.07-5.25-.07-5.086Zm37.1-8.25-.258,7.57-.023.727q2.039,0,3.7-.164.281-.023.492-.023,1.031,0,1.031.95,0,.878-1.078.878-.328,0-.82-.047-1.852-.141-2.648-.141h-.68l-.023,4.541.08,9.1.06,4.871a7.549,7.549,0,0,0,.259,2.391.916.916,0,0,0,.9.68,2.687,2.687,0,0,0,1.814-.984,7.058,7.058,0,0,0,1.484-2.414q.492-1.359,1.172-1.359.8,0,.8.891a4.577,4.577,0,0,1-.8,2.215,9.665,9.665,0,0,1-1.922,2.309,10.51,10.51,0,0,1-7.172,2.414,8.229,8.229,0,0,1-6.422-2.506,6.909,6.909,0,0,1-1.617-2.821,16.424,16.424,0,0,1-.445-4.32V33.159l.023-4.941V19.836q-.328-.023-.469-.023-.234,0-.937.047-.586.047-.984.047-1.148,0-1.148-.88,0-.855,1.1-.855.516,0,.727.023l1.711.117V15.664A74.375,74.375,0,0,0,368.086,10.156Zm8.18,14.719L375.3,12.008h6.234l-.961,12.867Zm19.43,7.078v7.266a8.243,8.243,0,0,0,.258,2.672q.492,1.078,2.32,1.078a10.912,10.912,0,0,0,5.379-1.488,14.56,14.56,0,0,0,4.605-4.113,7.216,7.216,0,0,1,.914-1.1.933.933,0,0,1,.609-.234.836.836,0,0,1,.656.293,1.077,1.077,0,0,1,.258.738,4.62,4.62,0,0,1-1.57,2.648A15.838,15.838,0,0,1,404,43.18a14.846,14.846,0,0,1-5.965,1.336,13.177,13.177,0,0,1-12.234-8.2,13.073,13.073,0,0,1-1.055-5.062,13.588,13.588,0,0,1,.938-4.887,13.058,13.058,0,0,1,2.578-4.23,13.253,13.253,0,0,1,4.5-3.234,13.308,13.308,0,0,1,13.2,1.43q5.484,3.984,5.438,11.555h-5.461l-7.031.023Zm6-1.547V23.577q-.047-2.2-.094-2.631a1.616,1.616,0,0,0-.328-.807,3.138,3.138,0,0,0-2.672-.912q-2.062,0-2.578,1.052a9.539,9.539,0,0,0-.328,3.3v6.829l2.859.094Z" transform="translate(42 22)" fill="#fff"/>
    <path id="Path_135" data-name="Path 135" d="M8.464,14.021H3.507L2.47,17H.158L4.992,4.2h2L11.83,17H9.51ZM4.131,12.228H7.84L5.985,6.919ZM14.66,7.49l.062.993a3.422,3.422,0,0,1,2.742-1.169,2.629,2.629,0,0,1,2.61,1.459,3.373,3.373,0,0,1,2.918-1.459,2.965,2.965,0,0,1,2.342.87,3.831,3.831,0,0,1,.787,2.566V17H23.985V10.813a1.891,1.891,0,0,0-.4-1.327,1.731,1.731,0,0,0-1.31-.422,1.778,1.778,0,0,0-1.191.391,2.063,2.063,0,0,0-.646,1.024L20.452,17H18.316V10.742A1.523,1.523,0,0,0,16.6,9.063a1.88,1.88,0,0,0-1.819,1.046V17H12.647V7.49ZM32.5,17.176A4.419,4.419,0,0,1,29.21,15.9a4.639,4.639,0,0,1-1.261-3.406v-.264A5.706,5.706,0,0,1,28.5,9.683a4.181,4.181,0,0,1,1.542-1.745,4.078,4.078,0,0,1,2.215-.624,3.733,3.733,0,0,1,3,1.239,5.24,5.24,0,0,1,1.059,3.507v.861H30.1a2.856,2.856,0,0,0,.787,1.863,2.362,2.362,0,0,0,1.736.686,2.892,2.892,0,0,0,2.391-1.187l1.151,1.1a3.845,3.845,0,0,1-1.525,1.323A4.774,4.774,0,0,1,32.5,17.176Zm-.255-8.147a1.8,1.8,0,0,0-1.419.615,3.189,3.189,0,0,0-.69,1.714h4.069V11.2a2.6,2.6,0,0,0-.571-1.622A1.785,1.785,0,0,0,32.247,9.028Zm10.705.413a5.285,5.285,0,0,0-.87-.07A1.959,1.959,0,0,0,40.1,10.5V17H37.969V7.49h2.039l.053,1.063a2.406,2.406,0,0,1,2.145-1.239,2,2,0,0,1,.756.123ZM46.573,17H44.438V7.49h2.136ZM44.306,5.021a1.133,1.133,0,0,1,.312-.817,1.179,1.179,0,0,1,.892-.325,1.193,1.193,0,0,1,.9.325,1.125,1.125,0,0,1,.316.817,1.1,1.1,0,0,1-.316.8,1.2,1.2,0,0,1-.9.321,1.188,1.188,0,0,1-.892-.321A1.107,1.107,0,0,1,44.306,5.021Zm8.5,10.45A1.931,1.931,0,0,0,54.132,15a1.591,1.591,0,0,0,.563-1.151h2.013a3.137,3.137,0,0,1-.554,1.657,3.632,3.632,0,0,1-1.406,1.217,4.191,4.191,0,0,1-1.916.448,4.055,4.055,0,0,1-3.164-1.292A5.124,5.124,0,0,1,48.5,12.315V12.1a5.039,5.039,0,0,1,1.16-3.476,4.018,4.018,0,0,1,3.164-1.305,3.907,3.907,0,0,1,2.764.989,3.542,3.542,0,0,1,1.121,2.6H54.694a1.956,1.956,0,0,0-.558-1.345A1.8,1.8,0,0,0,52.8,9.028a1.879,1.879,0,0,0-1.6.751,3.834,3.834,0,0,0-.571,2.281V12.4a3.9,3.9,0,0,0,.558,2.307A1.878,1.878,0,0,0,52.8,15.471ZM64,17a3.3,3.3,0,0,1-.246-.888,3.593,3.593,0,0,1-4.834.246,2.615,2.615,0,0,1-.905-2.021A2.7,2.7,0,0,1,59.146,12a5.473,5.473,0,0,1,3.23-.813h1.31v-.624a1.666,1.666,0,0,0-.413-1.182,1.638,1.638,0,0,0-1.257-.444,1.881,1.881,0,0,0-1.2.365,1.129,1.129,0,0,0-.466.927H58.219a2.37,2.37,0,0,1,.519-1.463A3.455,3.455,0,0,1,60.148,7.7a4.955,4.955,0,0,1,1.991-.387,3.99,3.99,0,0,1,2.663.839,2.993,2.993,0,0,1,1.02,2.36V14.8a4.861,4.861,0,0,0,.36,2.048V17Zm-2.347-1.538a2.429,2.429,0,0,0,1.191-.308,2.055,2.055,0,0,0,.839-.826V12.535H62.534a3.148,3.148,0,0,0-1.784.413,1.338,1.338,0,0,0-.6,1.169,1.248,1.248,0,0,0,.409.98A1.583,1.583,0,0,0,61.655,15.462ZM70.04,7.49l.062,1.1A3.419,3.419,0,0,1,72.87,7.314q2.971,0,3.023,3.4V17H73.758V10.839a1.958,1.958,0,0,0-.391-1.34,1.645,1.645,0,0,0-1.279-.435,2.058,2.058,0,0,0-1.925,1.169V17H68.027V7.49ZM82.758,17V4.2h4.386a5.354,5.354,0,0,1,3.3.87,3.065,3.065,0,0,1,1.134,2.593,2.763,2.763,0,0,1-.475,1.582,3.055,3.055,0,0,1-1.389,1.09,2.825,2.825,0,0,1,1.6,1.059,3.085,3.085,0,0,1,.567,1.868,3.407,3.407,0,0,1-1.156,2.769A5.025,5.025,0,0,1,87.425,17Zm2.224-5.774v4h2.47a2.39,2.39,0,0,0,1.635-.519,1.82,1.82,0,0,0,.589-1.441,1.826,1.826,0,0,0-2.039-2.039Zm0-1.635h2.18a2.521,2.521,0,0,0,1.622-.47,1.611,1.611,0,0,0,.584-1.332,1.633,1.633,0,0,0-.541-1.371A2.73,2.73,0,0,0,87.144,6H84.981ZM96.179,17H94.043V3.5h2.136Zm8.086-.932a3.312,3.312,0,0,1-2.672,1.107,2.952,2.952,0,0,1-2.342-.905,3.851,3.851,0,0,1-.8-2.619V7.49h2.136v6.135q0,1.811,1.5,1.811a2.111,2.111,0,0,0,2.1-1.116V7.49h2.136V17h-2.013Zm8.429,1.107A4.419,4.419,0,0,1,109.4,15.9a4.639,4.639,0,0,1-1.261-3.406v-.264a5.706,5.706,0,0,1,.549-2.544,4.181,4.181,0,0,1,1.542-1.745,4.078,4.078,0,0,1,2.215-.624,3.733,3.733,0,0,1,3,1.239,5.24,5.24,0,0,1,1.059,3.507v.861h-6.214a2.856,2.856,0,0,0,.787,1.863,2.362,2.362,0,0,0,1.736.686,2.892,2.892,0,0,0,2.391-1.187l1.151,1.1a3.845,3.845,0,0,1-1.525,1.323A4.774,4.774,0,0,1,112.693,17.176Zm-.255-8.147a1.8,1.8,0,0,0-1.419.615,3.189,3.189,0,0,0-.69,1.714H114.4V11.2a2.6,2.6,0,0,0-.571-1.622A1.785,1.785,0,0,0,112.438,9.028ZM123.5,14.416a.968.968,0,0,0-.47-.87,5,5,0,0,0-1.56-.527,8.02,8.02,0,0,1-1.819-.58,2.428,2.428,0,0,1-1.6-2.241,2.531,2.531,0,0,1,1.037-2.057,4.1,4.1,0,0,1,2.637-.826,4.266,4.266,0,0,1,2.755.844,2.677,2.677,0,0,1,1.05,2.188H123.39a1.316,1.316,0,0,0-.457-1.024,1.752,1.752,0,0,0-1.213-.409,1.893,1.893,0,0,0-1.147.325,1.025,1.025,0,0,0-.444.87.866.866,0,0,0,.413.765,5.68,5.68,0,0,0,1.67.549,7.9,7.9,0,0,1,1.973.659,2.794,2.794,0,0,1,1.063.918,2.342,2.342,0,0,1,.347,1.3,2.478,2.478,0,0,1-1.063,2.079,4.535,4.535,0,0,1-2.786.8,4.917,4.917,0,0,1-2.083-.422,3.428,3.428,0,0,1-1.424-1.16,2.746,2.746,0,0,1-.51-1.591H119.8a1.5,1.5,0,0,0,.571,1.165,2.22,2.22,0,0,0,1.4.409,2.16,2.16,0,0,0,1.283-.321A.993.993,0,0,0,123.5,14.416ZM142.295,17h-2.224l-5.7-9.079V17h-2.224V4.2h2.224l5.722,9.114V4.2h2.206Zm6.609.176a4.419,4.419,0,0,1-3.292-1.279,4.639,4.639,0,0,1-1.261-3.406v-.264a5.706,5.706,0,0,1,.549-2.544,4.181,4.181,0,0,1,1.542-1.745,4.078,4.078,0,0,1,2.215-.624,3.733,3.733,0,0,1,3,1.239,5.24,5.24,0,0,1,1.059,3.507v.861H146.5a2.856,2.856,0,0,0,.787,1.863,2.362,2.362,0,0,0,1.736.686,2.892,2.892,0,0,0,2.391-1.187l1.151,1.1a3.845,3.845,0,0,1-1.525,1.323A4.774,4.774,0,0,1,148.9,17.176Zm-.255-8.147a1.8,1.8,0,0,0-1.419.615,3.189,3.189,0,0,0-.69,1.714h4.069V11.2a2.6,2.6,0,0,0-.571-1.622A1.785,1.785,0,0,0,148.649,9.028Zm8.4-3.85V7.49h1.679V9.072h-1.679v5.309a1.169,1.169,0,0,0,.215.787,1,1,0,0,0,.769.242,3.29,3.29,0,0,0,.747-.088v1.652a5.26,5.26,0,0,1-1.406.2q-2.461,0-2.461-2.716V9.072h-1.564V7.49h1.564V5.179Zm11.663,8.877,1.512-6.565h2.083L169.717,17h-1.758l-2.039-6.53-2,6.53h-1.758l-2.6-9.51h2.083l1.538,6.5,1.951-6.5h1.608Zm4.623-1.9a5.607,5.607,0,0,1,.554-2.518,4.044,4.044,0,0,1,1.556-1.723,4.383,4.383,0,0,1,2.3-.6,4.154,4.154,0,0,1,3.125,1.239,4.874,4.874,0,0,1,1.3,3.287l.009.5a5.658,5.658,0,0,1-.541,2.514,4,4,0,0,1-1.547,1.714,4.415,4.415,0,0,1-2.325.606,4.125,4.125,0,0,1-3.221-1.34,5.133,5.133,0,0,1-1.208-3.573Zm2.136.185a3.832,3.832,0,0,0,.606,2.3,1.971,1.971,0,0,0,1.688.831,1.95,1.95,0,0,0,1.683-.844,4.232,4.232,0,0,0,.6-2.47,3.782,3.782,0,0,0-.62-2.285,2.089,2.089,0,0,0-3.344-.013A4.152,4.152,0,0,0,175.474,12.342Zm13.491-2.9a5.285,5.285,0,0,0-.87-.07,1.959,1.959,0,0,0-1.978,1.125V17h-2.136V7.49h2.039l.053,1.063a2.406,2.406,0,0,1,2.145-1.239,2,2,0,0,1,.756.123Zm4.438,3.48-.949.976V17h-2.136V3.5h2.136v7.787l.668-.835L195.75,7.49h2.566l-3.533,3.964L198.694,17h-2.47ZM227.566,4.2h2.215v8.974a3.818,3.818,0,0,1-1.147,2.918,4.234,4.234,0,0,1-3.028,1.081,4.382,4.382,0,0,1-3.094-1.011,3.646,3.646,0,0,1-1.09-2.812h2.215a2.1,2.1,0,0,0,.505,1.534,1.961,1.961,0,0,0,1.463.514,1.823,1.823,0,0,0,1.428-.593,2.368,2.368,0,0,0,.532-1.639Zm6.847,11.021h6.838V17h-9.527V15.559L238.342,6h-6.574V4.2h9.272V5.609Zm18.94-3.577a3.491,3.491,0,0,1-5.194-.048,4.642,4.642,0,0,1-1-3.107,5.094,5.094,0,0,1,.51-2.294,3.8,3.8,0,0,1,1.45-1.6,4.115,4.115,0,0,1,2.18-.571,3.7,3.7,0,0,1,3.067,1.441A6.071,6.071,0,0,1,255.5,9.327v.6a7.885,7.885,0,0,1-1.564,5.282,5.889,5.889,0,0,1-4.667,1.846h-.255V15.286h.308a4.373,4.373,0,0,0,2.9-.91A3.792,3.792,0,0,0,253.354,11.647Zm-2.057-.536a2.155,2.155,0,0,0,1.2-.369,2.432,2.432,0,0,0,.87-1.02V8.888a4.009,4.009,0,0,0-.58-2.276,1.748,1.748,0,0,0-1.5-.861,1.727,1.727,0,0,0-1.472.76,3.2,3.2,0,0,0-.549,1.92,3.156,3.156,0,0,0,.554,1.942A1.754,1.754,0,0,0,251.3,11.111Zm13.456,1.327h1.591v1.714h-1.591V17h-2.136V14.152h-5.528l-.062-1.3,5.52-8.648h2.206Zm-5.484,0h3.349V7.095l-.158.281Zm9.958,2.312a1.22,1.22,0,0,1,.923.338,1.175,1.175,0,0,1,.325.848,1.134,1.134,0,0,1-.325.831,1.44,1.44,0,0,1-1.828,0,1.115,1.115,0,0,1-.334-.835,1.175,1.175,0,0,1,.325-.848A1.208,1.208,0,0,1,269.227,14.75Zm4.131-4.1.694-6.451h6.873V6.049h-5.1l-.352,3.059a3.951,3.951,0,0,1,2-.51,3.565,3.565,0,0,1,2.843,1.169,4.632,4.632,0,0,1,1.015,3.146,4.264,4.264,0,0,1-1.125,3.107,4.106,4.106,0,0,1-3.085,1.156,4.3,4.3,0,0,1-2.914-1,3.606,3.606,0,0,1-1.252-2.632h2.065a2.256,2.256,0,0,0,.668,1.428,2.032,2.032,0,0,0,1.424.5,1.836,1.836,0,0,0,1.534-.7,3.035,3.035,0,0,0,.549-1.916A2.682,2.682,0,0,0,278.6,11a2.121,2.121,0,0,0-1.67-.681,2.333,2.333,0,0,0-1.863.756Z" transform="translate(42 84)" fill="#fff"/>
    <text id="_" data-name="&amp;" transform="translate(246 84)" fill="#fff" font-size="18" font-family="Roboto-Regular, Roboto"><tspan x="0" y="17">&amp;</tspan></text>
  </g>
</svg>
