<svg xmlns="http://www.w3.org/2000/svg" xmlns:xlink="http://www.w3.org/1999/xlink" width="472" height="121" viewBox="0 0 472 121">
  <defs>
    <clipPath id="clip-Its_A_New_Day">
      <rect width="472" height="121"/>
    </clipPath>
  </defs>
  <g id="Its_A_New_Day" data-name="Its A New Day" clip-path="url(#clip-Its_A_New_Day)">
    <rect width="472" height="121" fill="rgba(255,255,255,0)"/>
    <path id="Path_133" data-name="Path 133" d="M13.593,59H4.511V14.922h9.082ZM31.908,18.191v8.053h5.6v6.418h-5.6V49.01a3.9,3.9,0,0,0,.7,2.6,3.5,3.5,0,0,0,2.664.787,13.952,13.952,0,0,0,2.573-.212v6.63a18.011,18.011,0,0,1-5.3.787q-9.2,0-9.385-9.294V32.662H18.376V26.244h4.783V18.191ZM60.123,49.948a2.819,2.819,0,0,0-1.589-2.528,18.054,18.054,0,0,0-5.1-1.65q-11.686-2.452-11.686-9.93a9,9,0,0,1,3.618-7.281,14.593,14.593,0,0,1,9.46-2.921q6.236,0,9.975,2.937A9.254,9.254,0,0,1,68.539,36.2H59.79a4.233,4.233,0,0,0-1.211-3.1,5.125,5.125,0,0,0-3.784-1.226,5.236,5.236,0,0,0-3.421,1,3.154,3.154,0,0,0-1.211,2.543,2.7,2.7,0,0,0,1.377,2.346,14.17,14.17,0,0,0,4.647,1.544,37.955,37.955,0,0,1,5.51,1.468q6.933,2.543,6.933,8.81a8.544,8.544,0,0,1-3.845,7.25,16.585,16.585,0,0,1-9.93,2.77,17.323,17.323,0,0,1-7.311-1.468,12.267,12.267,0,0,1-5.01-4.026,9.355,9.355,0,0,1-1.816-5.525h8.295a4.567,4.567,0,0,0,1.726,3.572,6.844,6.844,0,0,0,4.3,1.241,6.335,6.335,0,0,0,3.8-.954A2.967,2.967,0,0,0,60.123,49.948Zm55.037-.03H99.236L96.209,59H86.552L102.96,14.922h8.416L127.875,59h-9.657Zm-13.472-7.356h11.02l-5.54-16.5ZM183.275,59h-9.082l-17.68-29V59h-9.082V14.922h9.082l17.71,29.063V14.922h9.052Zm22.433.605a16.08,16.08,0,0,1-11.731-4.42q-4.526-4.42-4.526-11.776v-.848a19.787,19.787,0,0,1,1.907-8.825,14,14,0,0,1,5.4-5.994,15.167,15.167,0,0,1,7.977-2.1q6.721,0,10.581,4.238T219.18,41.9v3.572H198.321a8.128,8.128,0,0,0,2.558,5.146,7.733,7.733,0,0,0,5.4,1.938,9.444,9.444,0,0,0,7.9-3.663l4.3,4.813a13.134,13.134,0,0,1-5.328,4.344A17.481,17.481,0,0,1,205.708,59.605Zm-1-26.913a5.467,5.467,0,0,0-4.223,1.764,9.133,9.133,0,0,0-2.074,5.048h12.17v-.7a6.513,6.513,0,0,0-1.574-4.515A5.64,5.64,0,0,0,204.709,32.692ZM252.632,47.1l4.3-20.858h8.446L257.021,59H249.7l-6.206-20.616L237.283,59h-7.3l-8.355-32.756h8.446l4.269,20.828,5.994-20.828h6.327ZM285.721,59V14.922h13.563a20.6,20.6,0,0,1,10.4,2.619,18.26,18.26,0,0,1,7.16,7.447,22.97,22.97,0,0,1,2.573,10.974V37.99a23.035,23.035,0,0,1-2.528,10.929,18.1,18.1,0,0,1-7.129,7.417A20.752,20.752,0,0,1,299.374,59ZM294.8,22.278V51.7h4.39q5.328,0,8.144-3.481t2.876-9.96V35.932q0-6.721-2.785-10.187t-8.144-3.466ZM344.421,59a9.715,9.715,0,0,1-.878-2.937,10.586,10.586,0,0,1-8.265,3.542A11.63,11.63,0,0,1,327.3,56.82a8.958,8.958,0,0,1-3.164-7.023A9.257,9.257,0,0,1,328,41.8q3.86-2.785,11.156-2.815h4.026V37.112a5.4,5.4,0,0,0-1.166-3.633,4.585,4.585,0,0,0-3.678-1.362,5.213,5.213,0,0,0-3.466,1.06,3.6,3.6,0,0,0-1.256,2.906h-8.749a8.789,8.789,0,0,1,1.756-5.268,11.606,11.606,0,0,1,4.965-3.8,18.094,18.094,0,0,1,7.205-1.377q6.055,0,9.612,3.042t3.557,8.552v14.2a15.66,15.66,0,0,0,1.3,7.054V59Zm-7.235-6.085a7.535,7.535,0,0,0,3.572-.863,5.667,5.667,0,0,0,2.422-2.316V44.105h-3.27q-6.569,0-6.993,4.541l-.03.515a3.5,3.5,0,0,0,1.15,2.694A4.469,4.469,0,0,0,337.186,52.915Zm33.271-6.3,6.055-20.374H385.9L372.727,64.086,372,65.812q-2.937,6.418-9.687,6.418a13.766,13.766,0,0,1-3.875-.575v-6.63l1.332.03a7.2,7.2,0,0,0,3.708-.757,4.972,4.972,0,0,0,1.922-2.513l1.029-2.694L354.956,26.244h9.415Z" transform="translate(38 16)" fill="#fff"/>
    <path id="Path_132" data-name="Path 132" d="M11.109,13.309,12.832,4.2H15.46L12.621,17H9.967L7.884,8.439,5.8,17H3.146L.308,4.2H2.936l1.731,9.088L6.776,4.2H9.009ZM19.4,17H16.849V7.49H19.4ZM16.7,5.029a1.251,1.251,0,0,1,.382-.94,1.648,1.648,0,0,1,2.079,0,1.244,1.244,0,0,1,.387.94,1.247,1.247,0,0,1-.391.949,1.629,1.629,0,0,1-2.065,0A1.247,1.247,0,0,1,16.7,5.029Zm7.831.123V7.49h1.626V9.354H24.53V14.1a1.133,1.133,0,0,0,.2.756,1.015,1.015,0,0,0,.773.229,4.051,4.051,0,0,0,.747-.062v1.925a5.229,5.229,0,0,1-1.538.229,2.425,2.425,0,0,1-2.725-2.7V9.354H20.6V7.49H21.99V5.152Zm5.52,3.375a3.17,3.17,0,0,1,2.54-1.213q3.094,0,3.138,3.595V17h-2.54V10.979a1.767,1.767,0,0,0-.352-1.208,1.507,1.507,0,0,0-1.169-.391,1.729,1.729,0,0,0-1.617.861V17H27.51V3.5h2.54Zm16.98,3.788h-2.1V17H42.293V4.2h4.755a5.375,5.375,0,0,1,3.5,1.011,3.488,3.488,0,0,1,1.23,2.856,3.937,3.937,0,0,1-.567,2.184,3.866,3.866,0,0,1-1.718,1.393l2.769,5.229V17H49.43Zm-2.1-2.136h2.127a2.178,2.178,0,0,0,1.538-.505,1.806,1.806,0,0,0,.545-1.393,1.933,1.933,0,0,0-.514-1.424,2.137,2.137,0,0,0-1.578-.519H44.93ZM56.294,17H53.745V7.49h2.549ZM53.6,5.029a1.251,1.251,0,0,1,.382-.94,1.648,1.648,0,0,1,2.079,0,1.244,1.244,0,0,1,.387.94,1.247,1.247,0,0,1-.391.949,1.629,1.629,0,0,1-2.065,0A1.247,1.247,0,0,1,53.6,5.029Zm13.351,7.3a5.7,5.7,0,0,1-1,3.52,3.2,3.2,0,0,1-2.694,1.323,2.963,2.963,0,0,1-2.329-1v4.482h-2.54V7.49h2.355l.088.932a2.985,2.985,0,0,1,2.408-1.107,3.22,3.22,0,0,1,2.733,1.3,5.858,5.858,0,0,1,.976,3.586Zm-2.54-.185a3.743,3.743,0,0,0-.47-2.048,1.532,1.532,0,0,0-1.367-.721,1.663,1.663,0,0,0-1.644.914v3.894a1.692,1.692,0,0,0,1.661.94Q64.406,15.128,64.406,12.148ZM73.169,17V4.2h3.938a5.98,5.98,0,0,1,3.019.76A5.3,5.3,0,0,1,82.2,7.125a6.669,6.669,0,0,1,.747,3.186V10.9a6.688,6.688,0,0,1-.734,3.173,5.256,5.256,0,0,1-2.07,2.153A6.025,6.025,0,0,1,77.133,17ZM75.806,6.339v8.543H77.08a2.863,2.863,0,0,0,2.364-1.011,4.567,4.567,0,0,0,.835-2.892V10.3a4.64,4.64,0,0,0-.809-2.958,2.854,2.854,0,0,0-2.364-1.006ZM90.211,17a2.821,2.821,0,0,1-.255-.853,3.073,3.073,0,0,1-2.4,1.028,3.376,3.376,0,0,1-2.316-.809,2.6,2.6,0,0,1-.918-2.039,2.687,2.687,0,0,1,1.121-2.32,5.529,5.529,0,0,1,3.239-.817h1.169v-.545a1.567,1.567,0,0,0-.338-1.055,1.331,1.331,0,0,0-1.068-.4,1.513,1.513,0,0,0-1.006.308,1.045,1.045,0,0,0-.365.844h-2.54a2.551,2.551,0,0,1,.51-1.529,3.37,3.37,0,0,1,1.441-1.1,5.253,5.253,0,0,1,2.092-.4,4.15,4.15,0,0,1,2.791.883A3.09,3.09,0,0,1,92.4,10.681V14.8a4.546,4.546,0,0,0,.378,2.048V17Zm-2.1-1.767a2.188,2.188,0,0,0,1.037-.25,1.645,1.645,0,0,0,.7-.672V12.676H88.9q-1.907,0-2.03,1.318l-.009.149a1.017,1.017,0,0,0,.334.782A1.3,1.3,0,0,0,88.11,15.233ZM96.688,7.49l.079,1.1A3.32,3.32,0,0,1,99.5,7.314a2.759,2.759,0,0,1,2.25.888,4.142,4.142,0,0,1,.756,2.654V17h-2.54V10.918a1.648,1.648,0,0,0-.352-1.173,1.574,1.574,0,0,0-1.169-.365,1.747,1.747,0,0,0-1.608.914V17H94.3V7.49ZM107.112,17h-2.549V7.49h2.549Zm-2.7-11.971a1.251,1.251,0,0,1,.382-.94,1.648,1.648,0,0,1,2.079,0,1.244,1.244,0,0,1,.387.94,1.247,1.247,0,0,1-.391.949,1.629,1.629,0,0,1-2.065,0A1.247,1.247,0,0,1,104.414,5.029Zm9.167,12.146a4.668,4.668,0,0,1-3.406-1.283,4.561,4.561,0,0,1-1.314-3.419v-.246a5.745,5.745,0,0,1,.554-2.562,4.064,4.064,0,0,1,1.569-1.74,4.4,4.4,0,0,1,2.316-.611,3.947,3.947,0,0,1,3.072,1.23,5,5,0,0,1,1.121,3.489v1.037h-6.056a2.36,2.36,0,0,0,.743,1.494,2.245,2.245,0,0,0,1.569.563,2.742,2.742,0,0,0,2.294-1.063l1.248,1.4a3.813,3.813,0,0,1-1.547,1.261A5.075,5.075,0,0,1,113.581,17.176Zm-.29-7.813a1.587,1.587,0,0,0-1.226.512,2.651,2.651,0,0,0-.6,1.466H115v-.2a1.891,1.891,0,0,0-.457-1.311A1.638,1.638,0,0,0,113.291,9.362ZM121.614,17h-2.549V3.5h2.549Zm7.242-2.628a.818.818,0,0,0-.461-.734,5.241,5.241,0,0,0-1.481-.479q-3.393-.712-3.393-2.883a2.613,2.613,0,0,1,1.05-2.114,4.237,4.237,0,0,1,2.747-.848,4.56,4.56,0,0,1,2.9.853,2.687,2.687,0,0,1,1.085,2.215h-2.54a1.229,1.229,0,0,0-.352-.9,1.488,1.488,0,0,0-1.1-.356,1.52,1.52,0,0,0-.993.29.916.916,0,0,0-.352.738.783.783,0,0,0,.4.681,4.114,4.114,0,0,0,1.349.448,11.019,11.019,0,0,1,1.6.426,2.628,2.628,0,0,1,2.013,2.558,2.481,2.481,0,0,1-1.116,2.1,4.815,4.815,0,0,1-2.883.8,5.029,5.029,0,0,1-2.123-.426,3.561,3.561,0,0,1-1.455-1.169,2.716,2.716,0,0,1-.527-1.6h2.408a1.326,1.326,0,0,0,.5,1.037,1.987,1.987,0,0,0,1.248.36,1.839,1.839,0,0,0,1.1-.277A.861.861,0,0,0,128.856,14.372Zm8.235-.817a2.935,2.935,0,0,1,.5-1.644,6.9,6.9,0,0,1,1.824-1.679,8.954,8.954,0,0,1-.9-1.437,3.182,3.182,0,0,1-.325-1.4,3.271,3.271,0,0,1,.945-2.43,3.457,3.457,0,0,1,2.544-.936,3.319,3.319,0,0,1,2.351.853,2.782,2.782,0,0,1,.918,2.127,3.354,3.354,0,0,1-1.547,2.7l-.984.712,2.206,2.566a4.891,4.891,0,0,0,.519-2.25H147.3a6.6,6.6,0,0,1-1.151,4.043L148.069,17h-2.883l-.659-.756a5.779,5.779,0,0,1-3.252.932,4.459,4.459,0,0,1-3.041-1A3.314,3.314,0,0,1,137.092,13.555Zm4.307,1.573a3.225,3.225,0,0,0,1.731-.508l-2.522-2.911-.185.132a2.006,2.006,0,0,0-.782,1.569,1.66,1.66,0,0,0,.488,1.24A1.738,1.738,0,0,0,141.4,15.128Zm-.932-7.77a3,3,0,0,0,.773,1.661l.677-.448a2.3,2.3,0,0,0,.716-.65,1.4,1.4,0,0,0,.2-.756,1.046,1.046,0,0,0-.325-.765,1.13,1.13,0,0,0-.835-.325,1.142,1.142,0,0,0-.875.352A1.307,1.307,0,0,0,140.467,7.358Zm18.176,4.957h-2.1V17h-2.637V4.2h4.755a5.375,5.375,0,0,1,3.5,1.011,3.488,3.488,0,0,1,1.23,2.856,3.937,3.937,0,0,1-.567,2.184,3.866,3.866,0,0,1-1.718,1.393l2.769,5.229V17h-2.83Zm-2.1-2.136h2.127a2.178,2.178,0,0,0,1.538-.505,1.806,1.806,0,0,0,.545-1.393,1.933,1.933,0,0,0-.514-1.424,2.137,2.137,0,0,0-1.578-.519h-2.118Zm8.288,1.978a5.64,5.64,0,0,1,.545-2.522,3.989,3.989,0,0,1,1.569-1.714,4.577,4.577,0,0,1,2.377-.606,4.33,4.33,0,0,1,3.142,1.178,4.727,4.727,0,0,1,1.358,3.2l.018.65a4.97,4.97,0,0,1-1.222,3.511,4.735,4.735,0,0,1-6.561,0,5.058,5.058,0,0,1-1.226-3.586Zm2.54.18a3.555,3.555,0,0,0,.51,2.073,1.831,1.831,0,0,0,2.9.009,3.89,3.89,0,0,0,.519-2.267,3.519,3.519,0,0,0-.519-2.06,1.686,1.686,0,0,0-1.459-.731,1.658,1.658,0,0,0-1.441.726A3.955,3.955,0,0,0,167.37,12.338Zm16.3,1.208,1.248-6.056h2.452L184.948,17h-2.127l-1.8-5.985L179.218,17H177.1l-2.426-9.51h2.452l1.239,6.047,1.74-6.047h1.837Zm9.334,3.63a4.668,4.668,0,0,1-3.406-1.283,4.561,4.561,0,0,1-1.314-3.419v-.246a5.745,5.745,0,0,1,.554-2.562,4.064,4.064,0,0,1,1.569-1.74,4.4,4.4,0,0,1,2.316-.611,3.947,3.947,0,0,1,3.072,1.23,5,5,0,0,1,1.121,3.489v1.037h-6.056a2.36,2.36,0,0,0,.743,1.494,2.245,2.245,0,0,0,1.569.563,2.742,2.742,0,0,0,2.294-1.063l1.248,1.4a3.813,3.813,0,0,1-1.547,1.261A5.075,5.075,0,0,1,193.008,17.176Zm-.29-7.813a1.587,1.587,0,0,0-1.226.512,2.651,2.651,0,0,0-.6,1.466h3.533v-.2a1.891,1.891,0,0,0-.457-1.311A1.638,1.638,0,0,0,192.718,9.362Zm17.991,2.092h-5.062v3.428h5.941V17H203.01V4.2h8.561V6.339h-5.924v3.05h5.063ZM216.3,13.9l1.767-6.407h2.654L217.512,17h-2.426l-3.208-9.51h2.654ZM227.215,17a2.821,2.821,0,0,1-.255-.853,3.073,3.073,0,0,1-2.4,1.028,3.376,3.376,0,0,1-2.316-.809,2.6,2.6,0,0,1-.918-2.039,2.687,2.687,0,0,1,1.121-2.32,5.529,5.529,0,0,1,3.239-.817h1.169v-.545a1.567,1.567,0,0,0-.338-1.055,1.331,1.331,0,0,0-1.068-.4,1.513,1.513,0,0,0-1.006.308,1.045,1.045,0,0,0-.365.844h-2.54a2.551,2.551,0,0,1,.51-1.529,3.37,3.37,0,0,1,1.441-1.1,5.253,5.253,0,0,1,2.092-.4,4.15,4.15,0,0,1,2.791.883,3.09,3.09,0,0,1,1.033,2.483V14.8a4.546,4.546,0,0,0,.378,2.048V17Zm-2.1-1.767a2.188,2.188,0,0,0,1.037-.25,1.645,1.645,0,0,0,.7-.672V12.676h-.949q-1.907,0-2.03,1.318l-.009.149a1.017,1.017,0,0,0,.334.782A1.3,1.3,0,0,0,225.114,15.233Zm8.578-7.743.079,1.1A3.32,3.32,0,0,1,236.5,7.314a2.759,2.759,0,0,1,2.25.888,4.142,4.142,0,0,1,.756,2.654V17h-2.54V10.918a1.648,1.648,0,0,0-.352-1.173,1.574,1.574,0,0,0-1.169-.365,1.747,1.747,0,0,0-1.608.914V17H231.3V7.49Zm12.894,6.882a.818.818,0,0,0-.461-.734,5.241,5.241,0,0,0-1.481-.479q-3.393-.712-3.393-2.883a2.613,2.613,0,0,1,1.05-2.114,4.237,4.237,0,0,1,2.747-.848,4.56,4.56,0,0,1,2.9.853,2.687,2.687,0,0,1,1.085,2.215h-2.54a1.229,1.229,0,0,0-.352-.9,1.488,1.488,0,0,0-1.1-.356,1.52,1.52,0,0,0-.993.29.916.916,0,0,0-.352.738.783.783,0,0,0,.4.681,4.114,4.114,0,0,0,1.349.448,11.019,11.019,0,0,1,1.6.426,2.628,2.628,0,0,1,2.013,2.558,2.481,2.481,0,0,1-1.116,2.1,4.815,4.815,0,0,1-2.883.8,5.029,5.029,0,0,1-2.123-.426,3.561,3.561,0,0,1-1.455-1.169,2.716,2.716,0,0,1-.527-1.6h2.408a1.326,1.326,0,0,0,.5,1.037,1.987,1.987,0,0,0,1.248.36,1.839,1.839,0,0,0,1.1-.277A.861.861,0,0,0,246.586,14.372Z" transform="translate(42 84)" fill="#fff"/>
  </g>
</svg>
