<svg xmlns="http://www.w3.org/2000/svg" xmlns:xlink="http://www.w3.org/1999/xlink" width="472" height="121" viewBox="0 0 472 121">
  <defs>
    <clipPath id="clip-Tabari">
      <rect width="472" height="121"/>
    </clipPath>
  </defs>
  <g id="Tabari" clip-path="url(#clip-Tabari)">
    <rect width="472" height="121" fill="rgba(255,255,255,0)"/>
    <text id="American_Blues_Network_JZ_94.5" data-name="American Blues Network     JZ 94.5" transform="translate(42 84)" fill="#fff" font-size="18" font-family="Roboto-Medium, Roboto" font-weight="500"><tspan x="0" y="17" xml:space="preserve">American Blues Network     JZ 94.5</tspan></text>
    <text id="_" data-name="&amp;" transform="translate(246 84)" fill="#fff" font-size="18" font-family="Roboto-Regular, Roboto"><tspan x="0" y="17">&amp;</tspan></text>
    <path id="Path_134" data-name="Path 134" d="M37.115,22.278h-13.5V59H14.531V22.278H1.211V14.922h35.9ZM55.612,59a9.716,9.716,0,0,1-.878-2.937,10.586,10.586,0,0,1-8.265,3.542,11.63,11.63,0,0,1-7.977-2.785A8.957,8.957,0,0,1,35.329,49.8a9.257,9.257,0,0,1,3.86-7.992q3.86-2.785,11.156-2.815h4.026V37.112a5.4,5.4,0,0,0-1.166-3.633,4.585,4.585,0,0,0-3.678-1.362,5.213,5.213,0,0,0-3.466,1.06A3.6,3.6,0,0,0,44.8,36.083H36.056a8.788,8.788,0,0,1,1.756-5.268,11.606,11.606,0,0,1,4.965-3.8,18.094,18.094,0,0,1,7.205-1.377q6.055,0,9.612,3.042t3.557,8.552v14.2a15.66,15.66,0,0,0,1.3,7.054V59Zm-7.235-6.085a7.535,7.535,0,0,0,3.572-.863,5.667,5.667,0,0,0,2.422-2.316V44.105H51.1q-6.569,0-6.993,4.541l-.03.515a3.5,3.5,0,0,0,1.15,2.694A4.469,4.469,0,0,0,48.377,52.915Zm51.011-9.99q0,7.871-3.36,12.276a11.131,11.131,0,0,1-9.385,4.4,10.227,10.227,0,0,1-8.507-4.087L77.742,59H69.871V12.5H78.62V29.181a9.964,9.964,0,0,1,7.962-3.542,11.223,11.223,0,0,1,9.4,4.4q3.406,4.4,3.406,12.4Zm-8.749-.636q0-4.965-1.574-7.25a5.323,5.323,0,0,0-4.692-2.286q-4.178,0-5.752,3.421V49.1a5.849,5.849,0,0,0,5.813,3.451A5.4,5.4,0,0,0,90,48.374,21.551,21.551,0,0,0,90.639,42.289ZM123.758,59a9.716,9.716,0,0,1-.878-2.937,10.586,10.586,0,0,1-8.265,3.542,11.63,11.63,0,0,1-7.977-2.785,8.957,8.957,0,0,1-3.164-7.023,9.257,9.257,0,0,1,3.86-7.992q3.86-2.785,11.156-2.815h4.026V37.112a5.4,5.4,0,0,0-1.166-3.633,4.585,4.585,0,0,0-3.678-1.362,5.213,5.213,0,0,0-3.466,1.06,3.6,3.6,0,0,0-1.256,2.906H104.2a8.788,8.788,0,0,1,1.756-5.268,11.606,11.606,0,0,1,4.965-3.8,18.094,18.094,0,0,1,7.205-1.377q6.055,0,9.612,3.042t3.557,8.552v14.2a15.66,15.66,0,0,0,1.3,7.054V59Zm-7.235-6.085a7.535,7.535,0,0,0,3.572-.863,5.667,5.667,0,0,0,2.422-2.316V44.105h-3.27q-6.569,0-6.993,4.541l-.03.515a3.5,3.5,0,0,0,1.15,2.694A4.469,4.469,0,0,0,116.522,52.915Zm39.9-18.467a23.769,23.769,0,0,0-3.148-.242q-4.965,0-6.509,3.36V59h-8.749V26.244h8.265l.242,3.905q2.634-4.511,7.3-4.511a9.167,9.167,0,0,1,2.725.394ZM169.864,59h-8.779V26.244h8.779ZM160.57,17.768a4.308,4.308,0,0,1,1.317-3.239,5.675,5.675,0,0,1,7.16,0,4.284,4.284,0,0,1,1.332,3.239,4.3,4.3,0,0,1-1.347,3.27,5.611,5.611,0,0,1-7.114,0A4.3,4.3,0,0,1,160.57,17.768ZM193.084,59V14.922h15.439q8.022,0,12.17,3.073T224.841,27a9.959,9.959,0,0,1-1.665,5.707,9.618,9.618,0,0,1-4.632,3.618,9.305,9.305,0,0,1,5.343,3.421,10.114,10.114,0,0,1,1.953,6.3q0,6.357-4.057,9.627T210.219,59Zm9.082-19.193V51.7h7.78a7.508,7.508,0,0,0,5.01-1.529,5.243,5.243,0,0,0,1.8-4.223q0-6.055-6.267-6.146Zm0-6.418h6.721q6.872-.121,6.872-5.479a5.064,5.064,0,0,0-1.741-4.314q-1.741-1.317-5.495-1.317h-6.357Zm44.986,26.217a16.08,16.08,0,0,1-11.731-4.42q-4.526-4.42-4.526-11.776v-.848a19.787,19.787,0,0,1,1.907-8.825,14,14,0,0,1,5.4-5.994,15.167,15.167,0,0,1,7.977-2.1q6.721,0,10.581,4.238t3.86,12.019v3.572H239.766a8.128,8.128,0,0,0,2.558,5.146,7.733,7.733,0,0,0,5.4,1.938,9.444,9.444,0,0,0,7.9-3.663l4.3,4.813a13.134,13.134,0,0,1-5.328,4.344A17.481,17.481,0,0,1,247.152,59.605Zm-1-26.913a5.467,5.467,0,0,0-4.223,1.764,9.133,9.133,0,0,0-2.074,5.048h12.17v-.7a6.513,6.513,0,0,0-1.574-4.515A5.64,5.64,0,0,0,246.153,32.692Zm31.272,13.926,6.055-20.374h9.385L279.7,64.086l-.727,1.726q-2.937,6.418-9.687,6.418a13.766,13.766,0,0,1-3.875-.575v-6.63l1.332.03a7.2,7.2,0,0,0,3.708-.757,4.972,4.972,0,0,0,1.922-2.513l1.029-2.694L261.926,26.244h9.415Zm17.074-4.3a19.426,19.426,0,0,1,1.877-8.688,13.74,13.74,0,0,1,5.4-5.9,15.766,15.766,0,0,1,8.189-2.089A14.916,14.916,0,0,1,320.792,29.7q4.193,4.057,4.677,11.02l.061,2.24q0,7.538-4.208,12.094T310.03,59.605q-7.084,0-11.307-4.541T294.5,42.713Zm8.749.621q0,4.669,1.756,7.14a6.308,6.308,0,0,0,9.99.03q1.786-2.441,1.786-7.807A12.121,12.121,0,0,0,315,35.209a5.806,5.806,0,0,0-5.025-2.516,5.711,5.711,0,0,0-4.965,2.5Q303.249,37.7,303.249,42.94Zm35.723-16.7.272,3.784a11.436,11.436,0,0,1,9.415-4.39q5.207,0,7.75,3.058t2.6,9.143V59h-8.749V38.051a5.676,5.676,0,0,0-1.211-4.042,5.421,5.421,0,0,0-4.026-1.256,6.019,6.019,0,0,0-5.54,3.148V59h-8.749V26.244ZM364.28,42.38q0-7.659,3.436-12.2a11.149,11.149,0,0,1,9.4-4.541,10.032,10.032,0,0,1,7.9,3.572V12.5H393.8V59h-7.9l-.424-3.481a10.3,10.3,0,0,1-8.416,4.087,11.119,11.119,0,0,1-9.279-4.556Q364.28,50.493,364.28,42.38Zm8.749.651q0,4.609,1.6,7.065a5.227,5.227,0,0,0,4.662,2.456,5.854,5.854,0,0,0,5.722-3.426V36.179a5.77,5.77,0,0,0-5.661-3.426Q373.029,32.753,373.029,43.031Z" transform="translate(38 14)" fill="#fff"/>
  </g>
</svg>
